<svg version="1.1" id="Layer_1" xmlns="http://www.w3.org/2000/svg" xmlns:xlink="http://www.w3.org/1999/xlink" x="0px" y="0px"
	 viewBox="-220 387.5 30 19.1" style="enable-background:new -220 387.5 30 19.1;" xml:space="preserve">
<path fill="#F4EAD1" class="st0" d="M-192.8,387.5h-24.4c-1.1,0-2.8,0.8-2.8,2.8v13.4c0,1,0.6,2.5,2.2,2.8c0.1,0,0.2,0.1,0.4,0.1c0,0,0.1,0,0.1,0
	c0,0,0.1,0,0.1,0h24.4c0,0,0.1,0,0.2,0c0,0,0.1,0,0.1,0c0.1,0,0.3,0,0.4-0.1c1-0.3,2.1-1.1,2.1-2.7v-13.4
	C-190,389.2-190.8,387.5-192.8,387.5z M-217.9,403.7v-12.1l7.1,4.1c-0.1,0.1-0.1,0.1-0.2,0.2l-6.8,8.1
	C-217.9,404-217.9,403.8-217.9,403.7z M-216.9,389.6h23.8l-11.9,6.9L-216.9,389.6z M-209.3,397.4c0.2-0.2,0.2-0.4,0.3-0.6l3.4,2
	c0.2,0.1,0.4,0.2,0.6,0.2h0c0,0,0,0,0,0c0.2,0,0.4-0.1,0.6-0.2l3.4-2c0,0.2,0.1,0.4,0.3,0.6l5.9,7h-20.3L-209.3,397.4z M-199,395.9
	c-0.1-0.1-0.1-0.1-0.2-0.2l7.1-4.1v12.1c0,0.1,0,0.2-0.1,0.3L-199,395.9z"/>
</svg>
