<svg xmlns="http://www.w3.org/2000/svg" viewBox="-220 387.5 30 19.1"><path fill="#F4EAD1" class="st0" d="M-192.8 387.5h-24.4c-1.1 0-2.8.8-2.8 2.8v13.4c0 1 .6 2.5 2.2 2.8.1 0 .2.1.4.1h24.9c.1 0 .3 0 .4-.1 1-.3 2.1-1.1 2.1-2.7v-13.4c0-1.2-.8-2.9-2.8-2.9zm-25.1 16.2v-12.1l7.1 4.1-.2.2-6.8 8.1c-.1 0-.1-.2-.1-.3zm1-14.1h23.8l-11.9 6.9-11.9-6.9zm7.6 7.8c.2-.2.2-.4.3-.6l3.4 2c.2.1.4.2.6.2.2 0 .4-.1.6-.2l3.4-2c0 .2.1.4.3.6l5.9 7h-20.3l5.8-7zm10.3-1.5l-.2-.2 7.1-4.1v12.1c0 .1 0 .2-.1.3l-6.8-8.1z"/></svg>